<svg width="46" height="46" viewBox="0 0 46 46" fill="none" xmlns="http://www.w3.org/2000/svg">
<path d="M13.5616 10.6916C13.9053 10.3478 14.3427 10.1759 14.8739 10.1758C15.405 10.1757 15.8425 10.3475 16.1863 10.6911L23.499 17.9544L30.8091 10.6885C31.1528 10.3448 31.5827 10.1654 32.0989 10.1503C32.6138 10.1339 33.0588 10.3132 33.4338 10.6881C33.7775 11.0317 33.9495 11.4691 33.9495 12.0003C33.9496 12.5315 33.7779 12.9689 33.4342 13.3127L24.812 21.938C24.6246 22.1255 24.4215 22.2586 24.2028 22.3374C23.9841 22.4149 23.7497 22.4537 23.4998 22.4537C23.2498 22.4538 23.0155 22.4151 22.7967 22.3376C22.578 22.2589 22.3749 22.1259 22.1874 21.9384L13.5621 13.3162C13.2183 12.9726 13.0389 12.5427 13.0238 12.0265C13.0075 11.5116 13.1868 11.0666 13.5616 10.6916ZM13.5638 23.0648C13.9075 22.721 14.3449 22.5491 14.876 22.549C15.4072 22.5489 15.8447 22.7207 16.1884 23.0643L23.5012 30.3276L30.8113 23.0617C31.155 22.718 31.5849 22.5379 32.101 22.5216C32.616 22.5065 33.0609 22.6864 33.4359 23.0613C33.7797 23.4049 33.9516 23.8423 33.9517 24.3735C33.9518 24.9047 33.78 25.3421 33.4364 25.6859L24.8142 34.3112C24.6267 34.4987 24.4237 34.6312 24.205 34.7087C23.9863 34.7875 23.7519 34.8269 23.502 34.827C23.252 34.827 23.0176 34.7877 22.7989 34.709C22.5802 34.6315 22.3771 34.4991 22.1896 34.3116L13.5643 25.6894C13.2205 25.3458 13.0411 24.9165 13.026 24.4016C13.0097 23.8854 13.1889 23.4398 13.5638 23.0648Z" fill="#FFD24E"/>
</svg>
