<svg width="36" height="22" viewBox="0 0 36 22" fill="none" xmlns="http://www.w3.org/2000/svg">
<path d="M33.75 3.125H2.25C1.9019 3.125 1.56806 2.98672 1.32192 2.74058C1.07578 2.49444 0.9375 2.1606 0.9375 1.8125C0.9375 1.4644 1.07578 1.13056 1.32192 0.884423C1.56806 0.638281 1.9019 0.5 2.25 0.5H33.75C34.0981 0.5 34.4319 0.638281 34.6781 0.884423C34.9242 1.13056 35.0625 1.4644 35.0625 1.8125C35.0625 2.1606 34.9242 2.49444 34.6781 2.74058C34.4319 2.98672 34.0981 3.125 33.75 3.125Z" fill="#FFD24E"/>
<path d="M33.75 12.3125H2.25C1.9019 12.3125 1.56806 12.1742 1.32192 11.9281C1.07578 11.6819 0.9375 11.3481 0.9375 11C0.9375 10.6519 1.07578 10.3181 1.32192 10.0719C1.56806 9.82578 1.9019 9.6875 2.25 9.6875H33.75C34.0981 9.6875 34.4319 9.82578 34.6781 10.0719C34.9242 10.3181 35.0625 10.6519 35.0625 11C35.0625 11.3481 34.9242 11.6819 34.6781 11.9281C34.4319 12.1742 34.0981 12.3125 33.75 12.3125Z" fill="#FFD24E"/>
<path d="M33.75 21.5H2.25C1.9019 21.5 1.56806 21.3617 1.32192 21.1156C1.07578 20.8694 0.9375 20.5356 0.9375 20.1875C0.9375 19.8394 1.07578 19.5056 1.32192 19.2594C1.56806 19.0133 1.9019 18.875 2.25 18.875H33.75C34.0981 18.875 34.4319 19.0133 34.6781 19.2594C34.9242 19.5056 35.0625 19.8394 35.0625 20.1875C35.0625 20.5356 34.9242 20.8694 34.6781 21.1156C34.4319 21.3617 34.0981 21.5 33.75 21.5Z" fill="#FFD24E"/>
</svg>
