<svg width="179" height="184" viewBox="0 0 179 184" fill="none" xmlns="http://www.w3.org/2000/svg">
<path d="M170.321 99.3487C169.505 99.2949 168.857 98.9106 168.378 98.1958C167.899 97.4865 167.698 96.5452 167.775 95.3722C167.818 94.708 167.936 94.1024 168.127 93.5556C168.323 93.0144 168.527 92.5625 168.739 92.1999L170.428 92.3112L170.423 92.3916C170.034 92.8447 169.714 93.3562 169.462 93.926C169.216 94.4961 169.075 95.049 169.04 95.5846C168.996 96.2488 169.069 96.7754 169.258 97.1645C169.447 97.5535 169.771 97.7631 170.23 97.7934C170.583 97.8166 170.856 97.7324 171.051 97.5408C171.246 97.3493 171.426 96.9684 171.592 96.3984C171.654 96.1873 171.729 95.9098 171.816 95.5658C171.902 95.2272 171.992 94.9184 172.085 94.6395C172.345 93.8658 172.686 93.3261 173.108 93.0204C173.535 92.7204 174.042 92.5897 174.63 92.6284C174.998 92.6527 175.34 92.7506 175.656 92.922C175.971 93.0988 176.247 93.351 176.483 93.6786C176.714 93.9951 176.887 94.3884 177.001 94.8585C177.12 95.3344 177.16 95.8589 177.123 96.432C177.088 96.9677 176.986 97.5043 176.816 98.0418C176.652 98.5851 176.465 99.0327 176.254 99.3846L174.645 99.2786L174.65 99.1982C174.958 98.8312 175.226 98.3782 175.455 97.8391C175.688 97.3004 175.822 96.7659 175.857 96.2356C175.893 95.6839 175.817 95.2109 175.628 94.8165C175.445 94.4225 175.145 94.2117 174.729 94.1843C174.36 94.16 174.075 94.2569 173.873 94.4749C173.672 94.6876 173.496 95.0418 173.345 95.5375C173.263 95.8118 173.179 96.1183 173.092 96.4569C173.005 96.8008 172.928 97.0862 172.859 97.313C172.653 98.0042 172.343 98.527 171.928 98.8817C171.508 99.2359 170.973 99.3916 170.321 99.3487Z" fill="#874B79"/>
<path d="M177.144 107.748L177.463 106.071L179 106.366L178.681 108.042L177.144 107.748ZM166.883 105.686L167.166 104.199L175.971 105.884L175.688 107.371L166.883 105.686Z" fill="#874B79"/>
<path d="M161.454 124.173L161.979 122.753L166.764 124.535C167.125 124.669 167.48 124.781 167.829 124.871C168.176 124.966 168.47 124.998 168.71 124.967C168.968 124.931 169.192 124.826 169.383 124.651C169.573 124.475 169.744 124.184 169.894 123.776C170.041 123.378 170.088 122.943 170.034 122.471C169.986 122.001 169.882 121.51 169.723 120.998C169.602 120.971 169.462 120.933 169.303 120.885C169.149 120.839 168.996 120.788 168.846 120.732L163.466 118.73L163.991 117.31L168.776 119.091C169.147 119.23 169.505 119.343 169.849 119.431C170.196 119.526 170.49 119.557 170.729 119.526C170.988 119.491 171.21 119.385 171.395 119.207C171.585 119.032 171.756 118.741 171.907 118.333C172.05 117.945 172.099 117.52 172.053 117.056C172.006 116.598 171.906 116.12 171.753 115.622L165.479 113.287L166.003 111.867L174.407 114.995L173.883 116.415L172.95 116.067C173.152 116.647 173.275 117.193 173.319 117.708C173.361 118.227 173.29 118.736 173.106 119.234C172.893 119.808 172.594 120.249 172.206 120.557C171.816 120.87 171.372 121.045 170.873 121.083C171.142 121.836 171.295 122.488 171.331 123.04C171.372 123.593 171.292 124.139 171.093 124.677C170.751 125.603 170.218 126.181 169.494 126.41C168.774 126.645 167.912 126.576 166.909 126.203L161.454 124.173Z" fill="#874B79"/>
<path d="M158.952 138.171C158.333 137.788 157.82 137.349 157.415 136.852C157.014 136.359 156.736 135.84 156.58 135.296C156.428 134.786 156.385 134.268 156.45 133.741C156.518 133.221 156.692 132.733 156.972 132.276C157.216 131.878 157.481 131.544 157.767 131.273C158.05 131.006 158.385 130.763 158.772 130.542L155.574 128.566L156.365 127.277L166.813 133.732L166.022 135.021L165.222 134.527C165.299 135.048 165.302 135.579 165.233 136.123C165.165 136.673 164.982 137.191 164.685 137.675C164.118 138.599 163.329 139.101 162.318 139.182C161.309 139.271 160.187 138.934 158.952 138.171ZM159.735 136.82C160.655 137.388 161.439 137.656 162.088 137.622C162.738 137.588 163.263 137.244 163.664 136.59C163.891 136.22 164.04 135.798 164.111 135.325C164.181 134.852 164.192 134.364 164.143 133.86L159.817 131.188C159.429 131.452 159.125 131.696 158.906 131.92C158.684 132.149 158.471 132.43 158.266 132.763C157.825 133.481 157.723 134.19 157.959 134.891C158.195 135.591 158.787 136.234 159.735 136.82Z" fill="#874B79"/>
<path d="M150.874 141.496L151.831 140.325L161.483 148.274L160.526 149.444L150.874 141.496Z" fill="#874B79"/>
<path d="M144.295 154.811L149.098 150.264C148.72 149.862 148.33 149.567 147.926 149.381C147.527 149.198 147.132 149.111 146.742 149.119C146.363 149.123 145.992 149.209 145.627 149.377C145.259 149.548 144.908 149.792 144.573 150.109C144.129 150.529 143.766 151.039 143.484 151.638C143.202 152.245 143.046 152.724 143.017 153.077L142.958 153.132L141.829 151.931C142.052 151.425 142.307 150.937 142.593 150.467C142.879 149.997 143.234 149.561 143.658 149.16C144.74 148.135 145.86 147.629 147.017 147.64C148.179 147.655 149.268 148.203 150.285 149.285C151.291 150.354 151.799 151.478 151.811 152.656C151.818 153.837 151.347 154.877 150.398 155.776C149.518 156.608 148.599 156.991 147.64 156.925C146.676 156.863 145.749 156.358 144.856 155.409L144.295 154.811ZM146.156 154.644C146.703 155.218 147.269 155.527 147.855 155.57C148.436 155.618 149.019 155.365 149.602 154.813C150.19 154.256 150.496 153.639 150.519 152.96C150.539 152.284 150.329 151.667 149.891 151.107L146.156 154.644Z" fill="#874B79"/>
<path d="M127.668 166.391L133.415 163.126C133.143 162.645 132.834 162.266 132.487 161.988C132.142 161.715 131.779 161.535 131.399 161.449C131.03 161.362 130.649 161.357 130.255 161.433C129.857 161.511 129.457 161.664 129.057 161.891C128.526 162.193 128.053 162.601 127.636 163.115C127.217 163.637 126.951 164.065 126.839 164.4L126.769 164.44L125.959 163.003C126.296 162.565 126.659 162.152 127.049 161.764C127.439 161.376 127.887 161.038 128.395 160.75C129.689 160.015 130.897 159.791 132.018 160.079C133.143 160.372 134.07 161.166 134.8 162.459C135.522 163.739 135.749 164.952 135.479 166.099C135.205 167.247 134.5 168.144 133.364 168.79C132.312 169.387 131.328 169.539 130.412 169.245C129.492 168.954 128.711 168.241 128.071 167.106L127.668 166.391ZM129.515 166.674C129.91 167.363 130.386 167.798 130.944 167.981C131.497 168.166 132.123 168.061 132.821 167.664C133.524 167.265 133.968 166.738 134.153 166.084C134.332 165.433 134.276 164.783 133.984 164.135L129.515 166.674Z" fill="#874B79"/>
<path d="M114.436 167.407L115.85 166.881L117.625 171.682C117.768 172.07 117.925 172.424 118.095 172.744C118.266 173.069 118.448 173.305 118.639 173.452C118.842 173.616 119.081 173.705 119.354 173.718C119.628 173.736 119.954 173.675 120.33 173.535C120.716 173.391 121.085 173.145 121.435 172.797C121.786 172.449 122.099 172.055 122.376 171.614L120.048 165.318L121.463 164.792L124.58 173.224L123.166 173.751L122.82 172.815C122.514 173.346 122.164 173.803 121.768 174.185C121.373 174.567 120.927 174.85 120.431 175.035C119.523 175.373 118.729 175.356 118.05 174.985C117.371 174.614 116.84 173.912 116.459 172.88L114.436 167.407Z" fill="#874B79"/>
<path d="M102.109 171.599C101.824 170.101 101.954 168.937 102.499 168.106C103.044 167.275 104.02 166.725 105.428 166.455C105.896 166.366 106.36 166.312 106.82 166.296C107.273 166.274 107.727 166.283 108.181 166.322L108.469 167.841L108.39 167.856C108.131 167.807 107.725 167.764 107.173 167.728C106.621 167.686 106.082 167.715 105.556 167.816C105.052 167.913 104.646 168.053 104.338 168.238C104.03 168.422 103.804 168.64 103.661 168.892C103.516 169.133 103.432 169.406 103.409 169.711C103.385 170.016 103.407 170.348 103.475 170.706L103.629 171.513C104.007 171.069 104.384 170.718 104.76 170.46C105.132 170.209 105.633 170.023 106.263 169.902C107.314 169.701 108.222 169.921 108.987 170.561C109.747 171.208 110.259 172.225 110.522 173.612C110.667 174.371 110.686 175.045 110.58 175.634C110.47 176.229 110.269 176.762 109.977 177.233C109.707 177.673 109.347 178.042 108.897 178.341C108.448 178.646 107.982 178.844 107.499 178.937C106.989 179.034 106.553 179.063 106.192 179.023C105.826 178.989 105.431 178.903 105.007 178.766L104.985 179.164L103.598 179.429L102.109 171.599ZM103.862 172.739L104.777 177.556C105.205 177.66 105.597 177.716 105.953 177.724C106.304 177.739 106.648 177.714 106.985 177.65C107.799 177.494 108.388 177.097 108.752 176.459C109.115 175.821 109.197 174.98 108.999 173.936C108.811 172.945 108.494 172.227 108.05 171.782C107.606 171.337 106.982 171.191 106.178 171.345C105.747 171.427 105.332 171.591 104.932 171.837C104.528 172.09 104.171 172.39 103.862 172.739Z" fill="#874B79"/>
<path d="M94.3324 171.492L95.8385 171.405L96.5608 183.912L95.0546 184L94.3324 171.492Z" fill="#874B79"/>
<path d="M85.3368 182.135L87.0362 182.214L86.9637 183.783L85.2643 183.704L85.3368 182.135ZM85.9174 171.651L87.4244 171.721L87.0094 180.706L85.5024 180.636L85.9174 171.651Z" fill="#874B79"/>
<path d="M72.7398 172.769C72.8778 171.959 73.3258 171.352 74.0838 170.949C74.8366 170.544 75.7905 170.441 76.9453 170.639C77.5992 170.751 78.1873 170.931 78.7096 171.179C79.2257 171.431 79.6525 171.681 79.9901 171.929L79.7047 173.604L79.6256 173.59C79.2167 173.155 78.7429 172.783 78.2042 172.473C77.6645 172.168 77.1311 171.97 76.6037 171.879C75.9498 171.767 75.4203 171.785 75.0151 171.934C74.6099 172.082 74.3685 172.384 74.291 172.839C74.2315 173.188 74.2866 173.47 74.4563 173.684C74.626 173.898 74.9848 174.118 75.5327 174.342C75.7355 174.426 76.0029 174.529 76.3349 174.651C76.6615 174.773 76.9583 174.895 77.2252 175.017C77.9652 175.356 78.4649 175.752 78.7242 176.205C78.9773 176.662 79.0543 177.182 78.9551 177.764C78.8929 178.129 78.7605 178.46 78.5578 178.758C78.3499 179.054 78.0714 179.303 77.7222 179.505C77.3846 179.703 76.9768 179.834 76.4989 179.9C76.0149 179.969 75.4908 179.955 74.9265 179.858C74.3992 179.768 73.8779 179.61 73.3625 179.386C72.841 179.166 72.4167 178.932 72.0897 178.686L72.3616 177.09L72.4407 177.104C72.7726 177.449 73.1939 177.764 73.7046 178.048C74.2143 178.337 74.7303 178.526 75.2523 178.616C75.7955 178.709 76.2723 178.682 76.6828 178.534C77.0923 178.392 77.3323 178.115 77.4026 177.702C77.4648 177.337 77.3983 177.042 77.2031 176.818C77.0132 176.595 76.6803 176.383 76.2045 176.181C75.9411 176.071 75.646 175.955 75.3194 175.833C74.9874 175.711 74.7126 175.604 74.4948 175.512C73.8311 175.235 73.3449 174.871 73.0363 174.421C72.7286 173.965 72.6298 173.414 72.7398 172.769Z" fill="#874B79"/>
<path d="M61.4934 166.958L62.9248 167.436L61.3127 172.295C61.1826 172.687 61.0838 173.062 61.0163 173.418C60.9471 173.78 60.9412 174.078 60.9989 174.312C61.0548 174.568 61.1851 174.787 61.3899 174.969C61.593 175.155 61.8849 175.312 62.2656 175.439C62.6564 175.57 63.0972 175.61 63.5878 175.559C64.0783 175.507 64.5689 175.397 65.0595 175.227L67.1734 168.855L68.6048 169.333L64.6609 181.221L63.2294 180.743L64.6565 176.442C64.0864 176.664 63.5282 176.8 62.9818 176.85C62.4353 176.899 61.9109 176.84 61.4083 176.672C60.4896 176.365 59.8812 175.854 59.5832 175.137C59.2851 174.421 59.3093 173.541 59.6557 172.497L61.4934 166.958Z" fill="#874B79"/>
<path d="M43.0144 160.435C43.4538 159.742 44.1009 159.357 44.9555 159.279C45.8057 159.198 46.725 159.473 47.7135 160.104C48.2732 160.462 48.7461 160.856 49.1323 161.287C49.511 161.719 49.8081 162.116 50.0236 162.476L49.1146 163.909L49.0469 163.866C48.8376 163.306 48.5444 162.779 48.1673 162.284C47.7873 161.793 47.3716 161.403 46.9203 161.115C46.3606 160.758 45.8653 160.569 45.4345 160.548C45.0036 160.528 44.6647 160.712 44.4178 161.102C44.2282 161.401 44.1704 161.682 44.2442 161.945C44.3181 162.209 44.5643 162.551 44.9829 162.97C45.1376 163.126 45.3444 163.325 45.6033 163.567C45.8577 163.806 46.0844 164.033 46.2835 164.249C46.835 164.85 47.1429 165.409 47.2074 165.927C47.2645 166.447 47.135 166.956 46.8191 167.454C46.621 167.767 46.3711 168.021 46.0695 168.217C45.7635 168.409 45.4106 168.531 45.011 168.581C44.6232 168.632 44.1965 168.595 43.7308 168.47C43.2577 168.346 42.7796 168.13 42.2967 167.822C41.8453 167.533 41.4253 167.186 41.0367 166.779C40.6408 166.373 40.3396 165.993 40.1331 165.639L40.999 164.273L41.0667 164.316C41.2395 164.764 41.5066 165.218 41.8682 165.677C42.2268 166.142 42.6296 166.517 43.0764 166.802C43.5413 167.099 43.9914 167.259 44.4268 167.282C44.8593 167.31 45.1875 167.148 45.4115 166.794C45.6097 166.482 45.662 166.184 45.5684 165.902C45.4793 165.622 45.2543 165.297 44.8932 164.927C44.6929 164.723 44.4656 164.501 44.2112 164.262C43.9522 164.021 43.7401 163.815 43.5747 163.646C43.0696 163.133 42.7616 162.609 42.6508 162.073C42.5428 161.534 42.6641 160.987 43.0144 160.435Z" fill="#874B79"/>
<path d="M32.5488 162.52L33.8639 163.603L32.8711 164.817L31.5561 163.734L32.5488 162.52ZM39.2618 154.465L40.428 155.425L34.7414 162.378L33.5752 161.417L39.2618 154.465Z" fill="#874B79"/>
<path d="M25.6854 140.881L26.6801 142.019L22.843 145.396C22.5534 145.651 22.2862 145.911 22.0415 146.176C21.7931 146.438 21.6256 146.681 21.5388 146.908C21.447 147.153 21.4326 147.401 21.4958 147.652C21.559 147.904 21.7335 148.193 22.0192 148.52C22.2979 148.839 22.657 149.087 23.0966 149.264C23.5321 149.445 24.0119 149.587 24.5359 149.69C24.6178 149.596 24.7176 149.49 24.8353 149.373C24.9489 149.258 25.066 149.148 25.1867 149.042L29.5004 145.246L30.4951 146.384L26.658 149.761C26.3604 150.022 26.0912 150.284 25.8504 150.546C25.6021 150.808 25.4346 151.051 25.3478 151.278C25.2559 151.523 25.2436 151.769 25.3109 152.017C25.3741 152.268 25.5485 152.558 25.8342 152.885C26.1059 153.195 26.4557 153.441 26.8837 153.621C27.3081 153.797 27.7748 153.936 28.2837 154.038L33.3154 149.61L34.3102 150.749L27.5711 156.679L26.5763 155.541L27.3245 154.883C26.7204 154.786 26.1825 154.634 25.7107 154.428C25.2354 154.218 24.8231 153.914 24.4739 153.514C24.0717 153.054 23.8279 152.58 23.7422 152.091C23.6531 151.598 23.7107 151.123 23.915 150.664C23.1267 150.544 22.4823 150.369 21.9818 150.138C21.4773 149.911 21.0363 149.581 20.6589 149.149C20.0098 148.407 19.757 147.662 19.9006 146.914C20.0367 146.166 20.5069 145.438 21.3113 144.73L25.6854 140.881Z" fill="#874B79"/>
<path d="M14.586 131.989C15.2165 131.625 15.8457 131.382 16.4737 131.26C17.0971 131.142 17.6843 131.143 18.2355 131.264C18.7548 131.373 19.2296 131.582 19.66 131.891C20.083 132.198 20.4281 132.584 20.6951 133.049C20.9274 133.453 21.0942 133.846 21.1957 134.228C21.2946 134.604 21.3487 135.016 21.3582 135.462L24.6126 133.582L25.3655 134.894L14.733 141.038L13.9801 139.726L14.7937 139.256C14.3014 139.076 13.8337 138.826 13.3907 138.506C12.9404 138.184 12.5737 137.776 12.2907 137.283C11.7513 136.343 11.6868 135.408 12.097 134.477C12.5 133.544 13.3296 132.715 14.586 131.989ZM15.3977 133.322C14.4613 133.864 13.8533 134.429 13.574 135.018C13.2946 135.606 13.3458 136.233 13.7276 136.899C13.9439 137.275 14.2427 137.608 14.6239 137.895C15.005 138.183 15.4279 138.425 15.8924 138.621L20.2942 136.077C20.2475 135.609 20.1782 135.224 20.0863 134.924C19.9917 134.62 19.8469 134.298 19.652 133.958C19.2328 133.228 18.6601 132.8 17.9337 132.675C17.2073 132.549 16.362 132.765 15.3977 133.322Z" fill="#874B79"/>
<path d="M15.5647 123.399L16.1368 124.8L4.58282 129.551L4.01073 128.15L15.5647 123.399Z" fill="#874B79"/>
<path d="M7.03585 111.327L8.73909 117.729C9.27149 117.587 9.7153 117.382 10.0705 117.114C10.4206 116.848 10.685 116.542 10.8638 116.194C11.0401 115.858 11.1414 115.489 11.1675 115.087C11.1922 114.681 11.1452 114.254 11.0266 113.808C10.8693 113.217 10.595 112.654 10.2037 112.12C9.80592 111.582 9.45949 111.217 9.16446 111.023L9.14376 110.946L10.7332 110.52C11.071 110.957 11.378 111.414 11.6542 111.89C11.9303 112.366 12.1436 112.887 12.294 113.452C12.6775 114.894 12.5892 116.123 12.0292 117.14C11.4639 118.158 10.4654 118.859 9.03358 119.242C7.61731 119.622 6.39029 119.536 5.35253 118.986C4.31339 118.431 3.62549 117.521 3.28884 116.256C2.97703 115.084 3.07811 114.09 3.59207 113.274C4.10466 112.454 4.98897 111.875 6.24501 111.539L7.03585 111.327ZM6.2981 113.05C5.53449 113.26 4.99439 113.613 4.67781 114.109C4.35985 114.599 4.30435 115.234 4.5113 116.012C4.71964 116.795 5.11591 117.358 5.70011 117.702C6.28293 118.04 6.92377 118.149 7.62261 118.028L6.2981 113.05Z" fill="#874B79"/>
<path d="M4.81437 91.2144L4.94183 97.84C5.49276 97.8293 5.97255 97.7368 6.38121 97.5624C6.78453 97.3882 7.11444 97.1536 7.37096 96.8587C7.62234 96.5747 7.80855 96.2409 7.92959 95.8573C8.05053 95.4684 8.10656 95.0432 8.09768 94.5816C8.08591 93.9698 7.95374 93.3576 7.70116 92.7451C7.44314 92.1273 7.19393 91.6891 6.95352 91.4307L6.95197 91.3502L8.59674 91.3184C8.8205 91.8241 9.0097 92.3412 9.16434 92.8697C9.31898 93.3983 9.40193 93.955 9.41318 94.54C9.44189 96.0321 9.06313 97.2045 8.2769 98.0573C7.48533 98.9102 6.34873 99.3509 4.8671 99.3796C3.40152 99.408 2.23045 99.0307 1.3539 98.2477C0.477252 97.4593 0.0263309 96.4104 0.00113933 95.1008C-0.0221938 93.8879 0.312866 92.9472 1.00632 92.2788C1.69967 91.6049 2.69623 91.2554 3.996 91.2303L4.81437 91.2144ZM3.68736 92.71C2.89583 92.7307 2.28726 92.9439 1.86165 93.3494C1.43593 93.7496 1.23081 94.3522 1.2463 95.1573C1.26189 95.9677 1.51235 96.6098 1.99769 97.0836C2.48293 97.552 3.07919 97.8116 3.78647 97.8624L3.68736 92.71Z" fill="#874B79"/>
<path d="M10.24 78.7393L10.0257 80.2377L4.97372 79.5103C4.56596 79.4516 4.18126 79.4207 3.81961 79.4174C3.45267 79.4134 3.15947 79.4606 2.94 79.5592C2.69858 79.66 2.50707 79.8277 2.36544 80.0621C2.21852 80.2959 2.11656 80.612 2.05958 81.0105C2.00107 81.4197 2.04052 81.8619 2.17792 82.3372C2.31533 82.8125 2.511 83.2772 2.76493 83.7314L9.38974 84.6852L9.17546 86.1836L0.302664 84.9061L0.516942 83.4077L1.50193 83.5495C1.18221 83.0263 0.94951 82.4993 0.803816 81.9685C0.658122 81.4378 0.622888 80.9094 0.698113 80.3834C0.835647 79.4216 1.22912 78.7299 1.87852 78.3082C2.52793 77.8865 3.39544 77.7538 4.48104 77.9101L10.24 78.7393Z" fill="#874B79"/>
<path d="M12.4586 65.8037C13.9055 66.2688 14.8625 66.94 15.3295 67.8173C15.7966 68.6945 15.8114 69.8182 15.3739 71.1882C15.2287 71.6432 15.0535 72.0773 14.8486 72.4905C14.6503 72.9003 14.4257 73.2959 14.1747 73.6775L12.7074 73.2058L12.7319 73.1291C12.8986 72.9234 13.1299 72.5863 13.4256 72.1177C13.7264 71.6507 13.9584 71.1616 14.1216 70.6504C14.2783 70.1596 14.3495 69.7344 14.3351 69.3746C14.3208 69.0149 14.2377 68.712 14.0859 68.4659C13.9444 68.2231 13.7457 68.0184 13.49 67.8516C13.2343 67.6849 12.9332 67.5458 12.5867 67.4344L11.8072 67.1838C12.0149 67.7297 12.1418 68.2299 12.1877 68.6843C12.2301 69.132 12.1534 69.6626 11.9575 70.276C11.6311 71.2984 11.0047 71.9933 10.0785 72.3607C9.14876 72.7213 8.01395 72.6863 6.67402 72.2555C5.94038 72.0197 5.34127 71.7144 4.8767 71.3396C4.40867 70.958 4.03819 70.5261 3.76524 70.0437C3.50961 69.5952 3.35834 69.1012 3.31144 68.562C3.25945 68.021 3.30854 67.5154 3.4587 67.0451C3.61703 66.5492 3.80019 66.1515 4.00818 65.852C4.21271 65.5457 4.47644 65.2388 4.79939 64.9311L4.46195 64.7212L4.89286 63.3716L12.4586 65.8037ZM10.6227 66.8031L5.96864 65.307C5.673 65.6347 5.43647 65.9532 5.25904 66.2626C5.07816 66.5652 4.93549 66.8801 4.83102 67.2072C4.57803 67.9996 4.64382 68.7084 5.02841 69.3337C5.413 69.959 6.10967 70.4338 7.11843 70.7581C8.07625 71.066 8.85612 71.1307 9.45804 70.9521C10.06 70.7736 10.4858 70.2933 10.7355 69.5111C10.8694 69.092 10.9242 68.6474 10.9001 68.1774C10.8726 67.7007 10.7801 67.2426 10.6227 66.8031Z" fill="#874B79"/>
<path d="M16.2465 59.0187L15.5973 60.3851L4.32601 54.9937L4.97521 53.6273L16.2465 59.0187Z" fill="#874B79"/>
<path d="M10.914 46.5492L10.0325 48.0092L8.69411 47.1958L9.57552 45.7357L10.914 46.5492ZM19.8144 52.0717L19.0328 53.3665L11.366 48.7067L12.1476 47.4119L19.8144 52.0717Z" fill="#874B79"/>
<path d="M25.0748 39.9037C25.7188 40.4108 26.0372 41.0948 26.0302 41.9559C26.0265 42.8128 25.663 43.7036 24.9397 44.6284C24.5302 45.1521 24.0926 45.5854 23.6271 45.9285C23.1607 46.2641 22.7382 46.5216 22.3597 46.7012L21.0277 45.6524L21.0772 45.589C21.6531 45.4352 22.2053 45.1945 22.7336 44.8667C23.2577 44.5357 23.6849 44.159 24.0152 43.7367C24.4248 43.2131 24.661 42.7372 24.7238 42.309C24.7867 41.8808 24.6371 41.5243 24.2752 41.2393C23.9974 41.0205 23.7242 40.9351 23.4556 40.9829C23.187 41.0307 22.8239 41.2428 22.3662 41.6194C22.1962 41.7585 21.9786 41.9454 21.7134 42.1801C21.4515 42.4106 21.2036 42.6145 20.9696 42.792C20.32 43.2835 19.735 43.5359 19.2145 43.5492C18.6932 43.5549 18.2011 43.3755 17.7381 43.011C17.4477 42.7823 17.2204 42.5078 17.0562 42.1874C16.8952 41.8628 16.8095 41.4985 16.799 41.0945C16.7862 40.7022 16.865 40.2798 17.0354 39.8271C17.2049 39.3669 17.4663 38.9109 17.8197 38.4591C18.15 38.0368 18.5362 37.6517 18.9783 37.3038C19.4195 36.9484 19.826 36.6851 20.1979 36.5139L21.4668 37.5131L21.4173 37.5764C20.9564 37.7048 20.4801 37.9269 19.9884 38.2425C19.4925 38.5549 19.0811 38.9201 18.7541 39.3381C18.4139 39.7731 18.2108 40.2068 18.1446 40.6392C18.0743 41.0682 18.2032 41.412 18.5315 41.6705C18.8219 41.8992 19.1117 41.9807 19.4011 41.9151C19.6871 41.8537 20.0316 41.661 20.4347 41.337C20.6569 41.1571 20.899 40.952 21.1609 40.7215C21.426 40.4868 21.6507 40.2952 21.8348 40.1467C22.3937 39.6929 22.944 39.4371 23.4858 39.3792C24.0317 39.3246 24.5614 39.4994 25.0748 39.9037Z" fill="#874B79"/>
<path d="M35.5404 32.6499L34.4394 33.6847L30.9504 29.9471C30.6688 29.6454 30.3879 29.3799 30.1077 29.1504C29.8239 28.917 29.5656 28.7699 29.3329 28.7091C29.0817 28.6363 28.8278 28.6469 28.5711 28.7411C28.3108 28.8313 28.0342 29.014 27.7414 29.2892C27.4407 29.5717 27.1959 29.9416 27.0069 30.3987C26.8179 30.8558 26.6809 31.3413 26.5961 31.855L31.1712 36.7562L30.0701 37.791L21.5342 28.6468L22.6353 27.612L25.7238 30.9206C25.8004 30.3116 25.9473 29.7544 26.1644 29.2488C26.3815 28.7432 26.6833 28.3088 27.0698 27.9455C27.7766 27.2813 28.5147 26.9884 29.2843 27.0669C30.0539 27.1453 30.8135 27.5861 31.5632 28.3892L35.5404 32.6499Z" fill="#874B79"/>
<path d="M49.9523 19.3623C50.3529 20.0785 50.3853 20.8328 50.0494 21.6253C49.7182 22.4151 49.0418 23.0977 48.0201 23.6731C47.4416 23.9989 46.8718 24.2305 46.3107 24.368C45.7516 24.4982 45.263 24.5734 44.8448 24.5935L44.016 23.1119L44.086 23.0725C44.6766 23.1523 45.2786 23.1426 45.8918 23.0435C46.5025 22.9396 47.041 22.7563 47.5076 22.4936C48.086 22.1678 48.4862 21.8193 48.708 21.4481C48.9298 21.077 48.9281 20.6901 48.7029 20.2875C48.5301 19.9786 48.3106 19.7945 48.0442 19.7352C47.7779 19.6758 47.3614 19.7319 46.7948 19.9033C46.5846 19.9663 46.3122 20.0551 45.9775 20.1697C45.6475 20.2817 45.3406 20.3745 45.0566 20.4482C44.2687 20.6519 43.632 20.6597 43.1463 20.4715C42.6627 20.276 42.2769 19.9208 41.9889 19.4059C41.8082 19.0829 41.7033 18.7419 41.6742 18.3828C41.6498 18.021 41.71 17.6516 41.8549 17.2745C41.9931 16.9074 42.2274 16.5476 42.5579 16.1953C42.8905 15.8356 43.3063 15.5152 43.8055 15.2341C44.272 14.9714 44.7759 14.7645 45.3172 14.6135C45.8606 14.4552 46.3367 14.3687 46.7456 14.3539L47.5351 15.7652L47.4651 15.8046C46.9904 15.7457 46.4657 15.7673 45.8909 15.8694C45.3135 15.9668 44.7939 16.1456 44.3321 16.4057C43.8515 16.6763 43.498 16.9985 43.2715 17.3723C43.0424 17.7414 43.03 18.1085 43.2343 18.4737C43.4149 18.7967 43.6514 18.9836 43.9437 19.0344C44.2313 19.0879 44.6231 19.0427 45.1192 18.8987C45.3933 18.8182 45.6953 18.722 46.0253 18.61C46.3599 18.4954 46.6406 18.405 46.8674 18.3388C47.5571 18.1351 48.1632 18.1108 48.6856 18.2659C49.2106 18.4258 49.6328 18.7912 49.9523 19.3623Z" fill="#874B79"/>
<path d="M53.2112 9.03013L51.6371 9.67744L51.0437 8.22457L52.6179 7.57726L53.2112 9.03013ZM57.0902 18.7824L55.6942 19.3564L52.2952 11.0341L53.6912 10.46L57.0902 18.7824Z" fill="#874B79"/>
<path d="M75.3405 13.2573L73.8691 13.5918L72.7413 8.59733C72.6562 8.22039 72.5557 7.86069 72.44 7.51823C72.3295 7.17459 72.1958 6.91051 72.0389 6.72601C71.8681 6.52818 71.6575 6.39718 71.4072 6.33301C71.1568 6.26884 70.8203 6.28479 70.3977 6.38088C69.9855 6.47459 69.5969 6.67301 69.232 6.97613C68.8659 7.27402 68.5129 7.62949 68.1728 8.04256C68.2156 8.15941 68.2606 8.2978 68.3077 8.45772C68.3536 8.6124 68.3943 8.76828 68.4297 8.92533L69.6976 14.5402L68.2263 14.8747L67.0985 9.88023C67.011 9.49282 66.91 9.1305 66.7954 8.79327C66.6849 8.44963 66.5512 8.18555 66.3944 8.00105C66.2235 7.80322 66.0135 7.67483 65.7643 7.6159C65.514 7.55173 65.1775 7.56769 64.7548 7.66377C64.3531 7.75511 63.9712 7.94651 63.6091 8.23798C63.2523 8.52826 62.9079 8.87351 62.5759 9.27373L64.0548 15.8231L62.5835 16.1576L60.6027 7.38587L62.074 7.05135L62.2939 8.02512C62.6668 7.53855 63.0559 7.13635 63.4614 6.8185C63.8721 6.49947 64.3357 6.28123 64.8522 6.16379C65.447 6.02857 65.9789 6.03974 66.4478 6.19733C66.922 6.35372 67.311 6.63129 67.615 7.03002C68.0963 6.39221 68.5574 5.90761 68.9982 5.57622C69.4378 5.2396 69.9368 5.00783 70.495 4.8809C71.4551 4.66264 72.2283 4.79508 72.8146 5.27823C73.405 5.75496 73.8184 6.51685 74.0548 7.56391L75.3405 13.2573Z" fill="#874B79"/>
<path d="M88.2066 7.65471C88.2263 8.38449 88.14 9.05539 87.9478 9.6674C87.7554 10.2741 87.475 10.7918 87.1066 11.2206C86.7643 11.6273 86.3555 11.9472 85.8801 12.1802C85.4099 12.4078 84.9074 12.5288 84.3726 12.5433C83.9074 12.5559 83.4835 12.5164 83.1011 12.4247C82.724 12.3329 82.3373 12.185 81.9412 11.9809L82.0426 15.7479L80.5345 15.7888L80.203 3.4818L81.7111 3.44091L81.7365 4.38265C82.1285 4.03371 82.5701 3.73981 83.0614 3.50095C83.5579 3.25658 84.0896 3.12671 84.6565 3.11134C85.7367 3.08205 86.5874 3.46978 87.2085 4.27454C87.8348 5.07379 88.1675 6.20051 88.2066 7.65471ZM86.6515 7.73715C86.6223 6.65321 86.416 5.84795 86.0325 5.32135C85.6491 4.79475 85.075 4.54182 84.3102 4.56256C83.877 4.57431 83.4437 4.68003 83.0102 4.87973C82.5768 5.07943 82.1636 5.33766 81.7708 5.6544L81.908 10.7494C82.341 10.931 82.7109 11.0526 83.0176 11.114C83.3297 11.1754 83.6809 11.2008 84.0713 11.1902C84.9109 11.1674 85.5584 10.8653 86.0136 10.2837C86.4689 9.70213 86.6816 8.85329 86.6515 7.73715Z" fill="#874B79"/>
<path d="M96.1197 12.6196L94.6204 12.4507L96.0134 0L97.5126 0.168866L96.1197 12.6196Z" fill="#874B79"/>
<path d="M110.564 10.8284L104.146 9.26575C104.016 9.80306 103.983 10.2922 104.047 10.7331C104.113 11.1688 104.255 11.5486 104.474 11.8726C104.684 12.1888 104.958 12.4545 105.297 12.6695C105.641 12.8859 106.036 13.0485 106.483 13.1573C107.076 13.3016 107.7 13.3292 108.354 13.24C109.016 13.1469 109.501 13.0166 109.812 12.8491L109.89 12.868L109.502 14.4721C108.957 14.5606 108.411 14.6125 107.862 14.6281C107.313 14.6436 106.755 14.5824 106.189 14.4444C104.743 14.0925 103.71 13.4266 103.088 12.4466C102.467 11.4615 102.332 10.2464 102.681 8.80137C103.027 7.37202 103.689 6.33171 104.666 5.68044C105.649 5.03044 106.775 4.85986 108.044 5.16872C109.219 5.45479 110.04 6.01933 110.508 6.86235C110.981 7.70664 111.064 8.7626 110.757 10.0302L110.564 10.8284ZM109.41 9.35413C109.591 8.5808 109.541 7.93603 109.258 7.41982C108.981 6.90487 108.452 6.55246 107.672 6.36259C106.887 6.17146 106.205 6.25107 105.625 6.60142C105.05 6.95304 104.648 7.46556 104.419 8.13896L109.41 9.35413Z" fill="#874B79"/>
<path d="M129.352 18.5041L123.5 15.4327C123.244 15.9226 123.095 16.3893 123.051 16.8327C123.009 17.2713 123.056 17.6743 123.19 18.0418C123.318 18.3994 123.52 18.7237 123.797 19.0145C124.079 19.3078 124.423 19.5614 124.831 19.7754C125.372 20.059 125.97 20.2369 126.627 20.3089C127.291 20.3787 127.793 20.3699 128.135 20.2826L128.206 20.3199L127.444 21.7825C126.894 21.7364 126.351 21.6545 125.815 21.5366C125.279 21.4187 124.752 21.2242 124.235 20.953C122.917 20.2613 122.075 19.3647 121.707 18.2631C121.342 17.1567 121.503 15.9447 122.19 14.6271C122.869 13.3238 123.762 12.4746 124.867 12.0795C125.977 11.6869 127.111 11.7941 128.268 12.4012C129.339 12.9635 130 13.7103 130.251 14.6417C130.507 15.5756 130.334 16.6205 129.731 17.7763L129.352 18.5041ZM128.586 16.7937C128.948 16.0872 129.054 15.4493 128.904 14.8799C128.759 14.313 128.331 13.843 127.62 13.4698C126.904 13.0941 126.223 13.006 125.575 13.2054C124.933 13.4073 124.419 13.8073 124.035 14.4053L128.586 16.7937Z" fill="#874B79"/>
<path d="M137.276 28.9691L136.066 28.0652L139.113 23.9572C139.359 23.6256 139.57 23.3012 139.745 22.9838C139.924 22.6621 140.022 22.381 140.04 22.1405C140.067 21.8795 140.012 21.6306 139.874 21.3939C139.739 21.1528 139.511 20.9121 139.189 20.6717C138.859 20.4249 138.453 20.2487 137.971 20.1431C137.489 20.0375 136.989 19.9883 136.47 19.9956L132.474 25.3826L131.263 24.4788L136.615 17.2638L137.826 18.1677L137.231 18.9686C137.842 18.9363 138.415 18.9825 138.949 19.1072C139.484 19.232 139.963 19.453 140.388 19.7703C141.165 20.3504 141.583 21.0274 141.643 21.8012C141.702 22.5751 141.404 23.4034 140.75 24.2862L137.276 28.9691Z" fill="#874B79"/>
<path d="M147.822 37.3149C146.724 38.3691 145.68 38.893 144.689 38.8865C143.698 38.88 142.706 38.3572 141.715 37.318C141.386 36.9729 141.089 36.6114 140.825 36.2335C140.56 35.8633 140.321 35.4765 140.106 35.0731L141.219 34.0041L141.275 34.0622C141.375 34.3074 141.56 34.6721 141.83 35.1564C142.096 35.6444 142.413 36.0823 142.783 36.47C143.138 36.8423 143.477 37.1079 143.799 37.2668C144.121 37.4257 144.426 37.4969 144.714 37.4804C144.994 37.4713 145.268 37.3938 145.536 37.2478C145.804 37.1018 146.07 36.9026 146.332 36.6502L146.924 36.0822C146.346 36.0051 145.848 35.8783 145.428 35.7021C145.015 35.526 144.587 35.2053 144.143 34.74C143.403 33.9645 143.093 33.0807 143.213 32.0886C143.341 31.0967 143.913 30.1126 144.929 29.1363C145.486 28.6018 146.039 28.219 146.589 27.988C147.146 27.7573 147.701 27.6365 148.254 27.6258C148.769 27.6143 149.274 27.7165 149.768 27.9323C150.267 28.1445 150.686 28.4289 151.027 28.7856C151.386 29.1617 151.647 29.513 151.81 29.8392C151.981 30.1657 152.124 30.5447 152.239 30.9762L152.584 30.7788L153.561 31.8024L147.822 37.3149ZM147.822 35.2192L151.352 31.8282C151.206 31.4111 151.04 31.0506 150.854 30.7466C150.675 30.4428 150.467 30.1667 150.23 29.9186C149.657 29.3176 149.005 29.0375 148.273 29.0785C147.542 29.1194 146.794 29.5074 146.029 30.2424C145.302 30.9403 144.874 31.5972 144.743 32.2132C144.612 32.8292 144.83 33.4338 145.396 34.0271C145.699 34.3451 146.063 34.6055 146.486 34.8084C146.917 35.0114 147.362 35.1483 147.822 35.2192Z" fill="#874B79"/>
<path d="M151.817 43.6858L150.925 42.4649L160.996 35.0579L161.888 36.2788L151.817 43.6858Z" fill="#874B79"/>
<path d="M165.537 45.2725L164.677 43.7996L166.028 43.0059L166.888 44.4788L165.537 45.2725ZM156.459 50.4962L155.697 49.19L163.431 44.644L164.194 45.9502L156.459 50.4962Z" fill="#874B79"/>
<path d="M164.663 61.0697C163.911 61.3953 163.16 61.3494 162.409 60.9321C161.661 60.5197 161.054 59.7738 160.59 58.6945C160.327 58.0835 160.156 57.4908 160.078 56.9165C160.007 56.3451 159.983 55.8497 160.007 55.4302L161.561 54.7567L161.593 54.8306C161.453 55.4118 161.4 56.0135 161.435 56.6358C161.474 57.256 161.6 57.8125 161.812 58.3053C162.075 58.9164 162.379 59.3519 162.724 59.6117C163.069 59.8716 163.453 59.91 163.875 59.727C164.199 59.5866 164.405 59.3865 164.491 59.1269C164.577 58.8673 164.565 58.4458 164.454 57.8625C164.413 57.6462 164.353 57.3652 164.274 57.0193C164.198 56.6783 164.137 56.3624 164.094 56.0714C163.974 55.264 164.032 54.6277 164.269 54.1625C164.513 53.7002 164.905 53.352 165.445 53.1179C165.784 52.9711 166.133 52.9017 166.492 52.9099C166.853 52.923 167.213 53.0214 167.572 53.2051C167.921 53.3811 168.254 53.6523 168.569 54.0186C168.891 54.3878 169.165 54.836 169.392 55.3634C169.604 55.8562 169.757 56.3805 169.85 56.9364C169.951 57.4951 169.987 57.9792 169.96 58.3888L168.479 59.0304L168.447 58.9565C168.555 58.4889 168.588 57.9629 168.546 57.3787C168.509 56.7924 168.386 56.2553 168.176 55.7674C167.958 55.2598 167.675 54.8736 167.328 54.6088C166.986 54.3419 166.623 54.2914 166.24 54.4574C165.901 54.6042 165.691 54.8209 165.611 55.1072C165.528 55.3887 165.532 55.7845 165.623 56.2945C165.675 56.5763 165.739 56.8877 165.816 57.2286C165.894 57.5745 165.955 57.864 165.997 58.0972C166.128 58.8067 166.089 59.414 165.881 59.9193C165.668 60.4266 165.262 60.8101 164.663 61.0697Z" fill="#874B79"/>
<path d="M165.972 73.7395L165.594 72.274L170.535 70.9909C170.934 70.8873 171.301 70.7671 171.636 70.6302C171.976 70.492 172.228 70.335 172.393 70.1591C172.577 69.9727 172.689 69.7439 172.73 69.4728C172.775 69.2003 172.748 68.8692 172.647 68.4794C172.544 68.0793 172.338 67.6865 172.029 67.3011C171.719 66.9156 171.36 66.5625 170.951 66.2417L164.472 67.9243L164.094 66.4588L176.182 63.3196L176.56 64.7851L172.187 65.921C172.683 66.2801 173.1 66.6763 173.438 67.1097C173.776 67.543 174.012 68.017 174.145 68.5314C174.387 69.4721 174.29 70.2625 173.853 70.9028C173.416 71.5431 172.666 72.0011 171.604 72.2768L165.972 73.7395Z" fill="#874B79"/>
</svg>
